<?xml version="1.0" encoding="utf-8"?>
<!-- Generator: Adobe Illustrator 24.0.2, SVG Export Plug-In . SVG Version: 6.00 Build 0)  -->
<svg version="1.1" id="Layer_1" xmlns="http://www.w3.org/2000/svg" xmlns:xlink="http://www.w3.org/1999/xlink" x="0px" y="0px"
	 viewBox="0 0 283.46 68.97" style="enable-background:new 0 0 283.46 68.97;" xml:space="preserve">
<style type="text/css">
	.st0{fill:#FFFFFF;}
	.st1{fill:#A1D9F8;}
	.st2{fill:none;stroke:#A1D9F8;stroke-width:3;stroke-linecap:round;stroke-miterlimit:10;}
</style>
<path class="st0" d="M54.21,29.66c0,0.13,0,0.26,0,0.39c-0.07,0.09-0.14,0.18-0.22,0.27c-1.75,1.75-3.51,3.51-5.26,5.26
	c-0.32,0.32-0.58,0.32-0.91-0.01c-0.47-0.45-0.92-0.92-1.38-1.37c-0.07-0.07-0.14-0.12-0.26-0.21c0,0.21,0,0.35,0,0.49
	c0,5.58,0,14.92,0,20.51c0,0.69-0.15,0.84-0.85,0.84c-7.38,0-14.75,0-22.13,0c-0.72,0-0.86-0.14-0.86-0.87c0-5.58,0-14.92,0-20.51
	c0-0.14,0-0.27,0-0.52c-0.58,0.59-1.09,1.1-1.6,1.61c-0.36,0.36-0.62,0.36-0.97,0.02c-1.74-1.73-3.47-3.47-5.21-5.21
	c-0.34-0.34-0.35-0.6-0.01-0.94c2.62-2.63,5.25-5.26,7.88-7.87c0.13-0.13,0.33-0.24,0.51-0.24c1.77-0.02,3.53-0.02,5.3-0.01
	c0.34,0,0.56,0.18,0.59,0.54c0.01,0.13,0.02,0.26,0.03,0.39c0.24,3.73,4.27,6.13,7.64,4.52c1.92-0.92,2.99-2.47,3.15-4.61
	c0.05-0.68,0.18-0.84,0.75-0.84c1.68-0.01,3.35-0.01,5.03,0.01c0.23,0,0.52,0.12,0.68,0.28C48.82,24.26,51.51,26.96,54.21,29.66z"/>
<path class="st0" d="M74.4,28.51h-5.96C65.6,12.33,51.46,0,34.48,0C15.47,0,0,15.47,0,34.48C0,53.5,15.47,68.97,34.48,68.97
	c16.98,0,31.11-12.33,33.95-28.51h5.96V28.51z M34.48,65.21c-16.94,0-30.73-13.78-30.73-30.73c0-16.94,13.78-30.73,30.73-30.73
	c16.94,0,30.73,13.78,30.73,30.73C65.21,51.43,51.43,65.21,34.48,65.21z"/>
<g>
	<path class="st0" d="M91.71,50.97l-5.48-33.61h3.9l3.61,24.15l4.52-24.03h3.32l4.56,24.15l3.53-24.28h3.82l-5.39,33.61h-3.4
		l-4.69-24.9l-4.73,24.9H91.71z"/>
	<path class="st0" d="M113.49,50.97l7.14-33.61h4.52l7.18,33.61h-4.44l-1.54-8.47h-6.85l-1.62,8.47H113.49z M120.13,39.14h5.6
		L122.91,24L120.13,39.14z"/>
	<path class="st0" d="M142.62,51.34c-1.94,0-3.55-0.41-4.83-1.24c-1.29-0.83-2.26-1.98-2.93-3.44c-0.66-1.47-1.05-3.17-1.16-5.1
		l4.15-1.12c0.08,1.19,0.27,2.34,0.56,3.44c0.29,1.11,0.77,2.01,1.43,2.72c0.66,0.71,1.59,1.06,2.78,1.06
		c1.22,0,2.14-0.34,2.76-1.02c0.62-0.68,0.93-1.65,0.93-2.93c0-1.52-0.35-2.74-1.04-3.67c-0.69-0.93-1.56-1.86-2.61-2.8l-5.64-4.98
		c-1.11-0.97-1.92-2.03-2.45-3.17c-0.53-1.15-0.79-2.57-0.79-4.25c0-2.46,0.71-4.37,2.12-5.73c1.41-1.36,3.33-2.03,5.77-2.03
		c1.33,0,2.5,0.17,3.51,0.52c1.01,0.35,1.85,0.88,2.53,1.6c0.68,0.72,1.22,1.63,1.62,2.72c0.4,1.09,0.67,2.37,0.81,3.84l-3.98,1.08
		c-0.08-1.11-0.25-2.12-0.5-3.05c-0.25-0.93-0.68-1.67-1.31-2.24c-0.62-0.57-1.51-0.85-2.68-0.85s-2.07,0.31-2.72,0.93
		c-0.65,0.62-0.98,1.54-0.98,2.76c0,1.02,0.17,1.87,0.52,2.53c0.35,0.66,0.91,1.34,1.68,2.03l5.69,4.98
		c1.27,1.11,2.39,2.43,3.36,3.96c0.97,1.53,1.45,3.35,1.45,5.46c0,1.66-0.35,3.09-1.04,4.29c-0.69,1.2-1.64,2.12-2.84,2.76
		C145.59,51.03,144.2,51.34,142.62,51.34z"/>
	<path class="st0" d="M153.29,50.97V17.36h4.69v14.52h8.63V17.36h4.69v33.61h-4.69V35.24h-8.63v15.73H153.29z"/>
	<path class="st0" d="M175.78,50.97V17.36h4.61v33.61H175.78z"/>
	<path class="st0" d="M184.78,50.97V17.36h3.2l9.54,22.33V17.36h3.9v33.61h-2.99l-9.67-22.95v22.95H184.78z"/>
	<path class="st0" d="M213.67,51.39c-2.1,0-3.78-0.45-5.04-1.35c-1.26-0.9-2.17-2.21-2.74-3.92c-0.57-1.71-0.85-3.78-0.85-6.18
		V28.69c0-2.46,0.26-4.56,0.77-6.29c0.51-1.73,1.43-3.05,2.74-3.96c1.31-0.91,3.15-1.37,5.5-1.37c2.1,0,3.8,0.35,5.08,1.06
		c1.29,0.71,2.22,1.78,2.8,3.24c0.58,1.45,0.87,3.29,0.87,5.5v1.24h-4.4v-1.04c0-1.47-0.1-2.66-0.29-3.59
		c-0.19-0.93-0.59-1.62-1.18-2.08c-0.6-0.46-1.53-0.68-2.8-0.68c-1.38,0-2.39,0.32-3.01,0.95c-0.62,0.64-1.01,1.5-1.16,2.59
		c-0.15,1.09-0.23,2.33-0.23,3.71v12.45c0,1.6,0.12,2.95,0.35,4.03c0.23,1.08,0.68,1.88,1.35,2.41c0.66,0.53,1.6,0.79,2.82,0.79
		s2.16-0.29,2.82-0.87c0.66-0.58,1.12-1.44,1.37-2.57c0.25-1.13,0.37-2.54,0.37-4.23v-2.32h-4.28v-3.32h8.51v16.64h-2.95l-0.46-3.86
		c-0.44,1.24-1.13,2.27-2.08,3.07C216.63,50.98,215.33,51.39,213.67,51.39z"/>
	<path class="st0" d="M226.82,50.97V17.36h7.3c2.49,0,4.46,0.38,5.91,1.14s2.49,1.9,3.11,3.42c0.62,1.52,0.93,3.42,0.93,5.68v12.37
		c0,2.38-0.31,4.39-0.93,6.02c-0.62,1.63-1.63,2.87-3.03,3.71c-1.4,0.84-3.27,1.27-5.62,1.27H226.82z M231.51,47.61h2.66
		c1.71,0,2.93-0.33,3.65-1c0.72-0.66,1.15-1.63,1.31-2.91c0.15-1.27,0.23-2.81,0.23-4.61V28.19c0-1.74-0.11-3.15-0.33-4.23
		c-0.22-1.08-0.71-1.87-1.45-2.37c-0.75-0.5-1.92-0.75-3.53-0.75h-2.53V47.61z"/>
	<path class="st0" d="M245.83,50.97l7.14-33.61h4.52l7.18,33.61h-4.44l-1.53-8.47h-6.85l-1.62,8.47H245.83z M252.47,39.14h5.6
		L255.25,24L252.47,39.14z"/>
	<path class="st0" d="M271.27,50.97V39.1L264,17.36h4.36l5.15,16.23l5.06-16.23h4.4l-7.22,21.75v11.87H271.27z"/>
</g>
<path class="st1" d="M53.46,48.38c-3.25,0-3.25-4.55-6.5-4.55c-3.25,0-3.25,4.55-6.5,4.55c-3.25,0-3.25-4.55-6.5-4.55
	c-3.25,0-3.25,4.55-6.49,4.55c-3.25,0-3.25-4.55-6.5-4.55c-3.25,0-3.25,4.55-6.5,4.55c-2.62,0-3.13-2.96-4.93-4.1
	c3.68,10.25,13.48,17.59,25,17.59c11.68,0,21.59-7.54,25.15-18.02C56.71,44.07,56.62,48.38,53.46,48.38z"/>
<path class="st2" d="M41.67,9.51c-2.24-0.63-4.6-0.97-7.04-0.97"/>
<path class="st2" d="M58.36,24c-2.1-4.74-5.57-8.74-9.92-11.48"/>
</svg>
